<?xml version="1.0" standalone="no"?>
<!DOCTYPE svg PUBLIC "-//W3C//DTD SVG 20010904//EN"
 "http://www.w3.org/TR/2001/REC-SVG-20010904/DTD/svg10.dtd">
<svg version="1.0" xmlns="http://www.w3.org/2000/svg"
 width="1000.000000pt" height="1000.000000pt" viewBox="0 0 1000.000000 1000.000000"
 preserveAspectRatio="xMidYMid meet">

<g transform="translate(0.000000,1000.000000) scale(0.100000,-0.100000)"
fill="#000000" stroke="none">
<path d="M1680 5000 l0 -1710 1710 0 1710 0 0 510 0 510 -55 0 -55 0 0 -455 0
-455 -1600 0 -1600 0 0 1600 0 1600 1600 0 1600 0 0 -455 0 -455 55 0 55 0 0
510 0 510 -1710 0 -1710 0 0 -1710z"/>
<path d="M6473 5576 l-93 -9 0 -491 c0 -307 4 -505 10 -528 13 -46 52 -93 94
-115 38 -20 136 -22 187 -5 l36 13 -20 69 c-19 67 -21 69 -48 63 -61 -12 -59
-28 -59 513 0 271 -3 494 -7 496 -5 2 -50 0 -100 -6z"/>
<path d="M6923 5576 l-93 -9 0 -499 c0 -427 2 -504 15 -536 19 -44 50 -78 90
-100 36 -19 136 -21 186 -4 l36 13 -20 68 c-20 69 -21 69 -52 64 -61 -10 -59
-21 -65 521 l-5 491 -92 -9z"/>
<path d="M2840 4965 l0 -525 310 0 310 0 0 75 0 75 -210 0 -211 0 3 153 3 152
168 3 167 2 0 75 0 75 -170 0 -170 0 0 145 0 145 194 0 c220 0 200 -9 212 93
l6 57 -306 0 -306 0 0 -525z"/>
<path d="M5769 5259 c-93 -8 -223 -45 -216 -62 2 -7 12 -36 22 -64 11 -29 23
-53 28 -53 5 0 34 7 65 16 69 20 187 23 227 6 41 -17 56 -44 62 -114 l6 -58
-91 0 c-159 0 -260 -34 -325 -111 -82 -95 -70 -264 25 -344 52 -44 96 -58 178
-58 89 0 160 26 210 78 l33 34 21 -32 c25 -37 100 -79 135 -75 20 2 28 13 44
60 l19 58 -29 24 -28 24 -5 249 c-6 268 -9 285 -63 341 -66 70 -161 94 -318
81z m191 -523 c0 -77 -2 -87 -26 -116 -36 -42 -74 -60 -129 -60 -59 0 -83 13
-101 55 -19 47 -17 94 6 132 31 51 80 70 188 72 l62 1 0 -84z"/>
<path d="M4573 5245 c-18 -8 -55 -35 -83 -61 l-50 -47 0 29 c0 71 -4 74 -96
74 l-84 0 0 -400 0 -400 100 0 100 0 0 284 0 283 35 46 c57 74 144 88 182 30
16 -24 18 -61 21 -335 l3 -308 95 0 94 0 0 278 0 279 30 41 c36 50 66 71 113
79 31 5 41 1 67 -25 l30 -30 0 -311 0 -311 100 0 100 0 0 313 c0 334 -5 377
-50 434 -40 52 -88 73 -165 73 -86 0 -137 -22 -198 -82 l-43 -43 -26 42 c-37
58 -89 83 -175 83 -37 -1 -83 -7 -100 -15z"/>
<path d="M3610 4915 l0 -75 230 0 230 0 0 75 0 75 -230 0 -230 0 0 -75z"/>
</g>
</svg>
